<svg width="31" height="30" viewBox="0 0 31 30" fill="none" xmlns="http://www.w3.org/2000/svg">
<path d="M15.5 0C6.94019 0 0 6.8861 0 15.3792C0 22.1752 4.44075 27.9386 10.6004 29.9718C11.3752 30.1126 11.6581 29.6376 11.6581 29.2321C11.6581 28.866 11.6439 27.6533 11.6364 26.3692C7.32617 27.2984 6.41512 24.5557 6.41512 24.5557C5.70939 22.7797 4.69426 22.3066 4.69426 22.3066C3.28561 21.3529 4.80112 21.3717 4.80112 21.3717C6.35736 21.4787 7.17668 22.9562 7.17668 22.9562C8.55981 25.3066 10.8057 24.627 11.6874 24.2327C11.8283 23.2415 12.2294 22.5619 12.6713 22.1789C9.23055 21.7903 5.611 20.4706 5.611 14.5776C5.611 12.8973 6.21553 11.5269 7.20508 10.4502C7.04708 10.0597 6.51351 8.49496 7.35832 6.37828C7.35832 6.37828 8.6582 5.96527 11.6212 7.95525C12.8567 7.61264 14.1821 7.44368 15.5 7.43803C16.8169 7.44368 18.1432 7.61451 19.3807 7.95711C22.338 5.96527 23.6398 6.38014 23.6398 6.38014C24.4874 8.49872 23.9539 10.0616 23.7949 10.4502C24.7883 11.5269 25.3881 12.8973 25.3881 14.5776C25.3881 20.4856 21.7628 21.7866 18.3098 22.1677C18.8679 22.6445 19.3618 23.5794 19.3618 25.0137C19.3618 27.0694 19.3409 28.7271 19.3409 29.234C19.3409 29.6433 19.6228 30.122 20.4081 29.9718C26.5631 27.9349 31 22.1714 31 15.3792C31 6.8861 24.0598 0 15.5 0Z" fill="black"/>
</svg>
