<svg width="26" height="20" viewBox="0 0 26 20" fill="none" xmlns="http://www.w3.org/2000/svg">
<path fill-rule="evenodd" clip-rule="evenodd" d="M0 18V2.04272L12.8659 11.728L12.9164 11.6367L12.9301 11.6614L25.9927 1.82812C25.9975 1.88477 26 1.94214 26 2V18C26 19.1045 25.1046 20 24 20H2C0.895416 20 0 19.1045 0 18ZM25.0031 0.269287C24.7082 0.0979004 24.3655 0 24 0H2C1.56735 0 1.16678 0.137207 0.839539 0.37085L12.8538 9.41504L25.0031 0.269287Z" fill="#937EEA" fill-opacity="0.78"/>
<path fill-rule="evenodd" clip-rule="evenodd" d="M0 18V2.04272L12.8659 11.728L12.9164 11.6367L12.9301 11.6614L25.9927 1.82812C25.9975 1.88477 26 1.94214 26 2V18C26 19.1045 25.1046 20 24 20H2C0.895416 20 0 19.1045 0 18ZM25.0031 0.269287C24.7082 0.0979004 24.3655 0 24 0H2C1.56735 0 1.16678 0.137207 0.839539 0.37085L12.8538 9.41504L25.0031 0.269287Z" fill="black"/>
</svg>
